<svg width="5" height="5" viewBox="0 0 5 5" fill="none" xmlns="http://www.w3.org/2000/svg">
<path d="M3.79101 0.207993H1.20801C0.655723 0.207993 0.208008 0.655708 0.208008 1.20799V3.79099C0.208008 4.34328 0.655723 4.79099 1.20801 4.79099H3.79101C4.34329 4.79099 4.79101 4.34328 4.79101 3.79099V1.20799C4.79101 0.655708 4.34329 0.207993 3.79101 0.207993Z" fill="#1473E6"/>
<path d="M3.79899 1.55401C3.78856 1.54479 3.77632 1.53785 3.76306 1.53364C3.74979 1.52943 3.73579 1.52803 3.72196 1.52953C3.70812 1.53104 3.69475 1.53542 3.6827 1.54239C3.67066 1.54936 3.66019 1.55876 3.65199 1.57001L2.26399 3.30001C2.25462 3.31032 2.24319 3.31856 2.23045 3.3242C2.21771 3.32984 2.20393 3.33275 2.18999 3.33275C2.17606 3.33275 2.16228 3.32984 2.14953 3.3242C2.13679 3.31856 2.12536 3.31032 2.11599 3.30001L1.34099 2.56301C1.33108 2.55349 1.31938 2.54601 1.30658 2.54101C1.29378 2.53601 1.28011 2.53358 1.26637 2.53386C1.25263 2.53413 1.23907 2.53712 1.22648 2.54263C1.21389 2.54815 1.20251 2.55609 1.19299 2.56601C1.17376 2.58603 1.16328 2.61287 1.16384 2.64063C1.16412 2.65437 1.1671 2.66793 1.17262 2.68052C1.17813 2.69311 1.18608 2.70449 1.19599 2.71401L1.96999 3.45601C2.02792 3.51128 2.10493 3.54209 2.18499 3.54201H2.19799C2.23965 3.541 2.28068 3.53162 2.31864 3.51444C2.35661 3.49726 2.39073 3.47263 2.41899 3.44201V3.44201L3.81499 1.70101C3.82421 1.69058 3.83114 1.67834 3.83536 1.66507C3.83957 1.65181 3.84097 1.63781 3.83947 1.62397C3.83796 1.61014 3.83358 1.59677 3.82661 1.58472C3.81964 1.57267 3.81024 1.56221 3.79899 1.55401V1.55401Z" fill="white"/>
</svg>
