<svg width="46" height="46" viewBox="0 0 46 46" fill="none" xmlns="http://www.w3.org/2000/svg">
<path fill-rule="evenodd" clip-rule="evenodd" d="M39.427 18H40.5C41.9583 18.0013 43.3565 18.5812 44.3876 19.6124C45.4188 20.6435 45.9987 22.0417 46 23.5V40.5C45.9987 41.9583 45.4188 43.3565 44.3876 44.3876C43.3565 45.4188 41.9583 45.9987 40.5 46H9.86499C9.68623 46 9.51483 45.929 9.38843 45.8026C9.26203 45.6762 9.19098 45.5047 9.19098 45.326C9.19098 45.1472 9.26203 44.9758 9.38843 44.8494C9.51483 44.723 9.68623 44.652 9.86499 44.652H40.5C41.6004 44.6504 42.6554 44.2126 43.4335 43.4344C44.2116 42.6563 44.6494 41.6014 44.651 40.501V23.501C44.6494 22.4006 44.2116 21.3457 43.4335 20.5676C42.6554 19.7894 41.6004 19.3516 40.5 19.35H16.146C15.7111 19.3497 15.2856 19.2235 14.9208 18.9868C14.556 18.7502 14.2675 18.413 14.09 18.016L13.563 16.829C13.3672 16.391 13.0489 16.0191 12.6465 15.7579C12.2441 15.4967 11.7747 15.3575 11.295 15.357H3.82898C3.17087 15.3575 2.53987 15.6192 2.07452 16.0845C1.60917 16.5499 1.34751 17.1809 1.34698 17.839V40.5C1.34857 41.6004 1.78646 42.6553 2.56458 43.4334C3.34269 44.2116 4.39756 44.6494 5.49799 44.651H6.62299C6.80174 44.651 6.97321 44.722 7.09961 44.8484C7.22601 44.9748 7.297 45.1463 7.297 45.325C7.297 45.5038 7.22601 45.6752 7.09961 45.8016C6.97321 45.928 6.80174 45.999 6.62299 45.999H5.5C4.04172 45.9977 2.64353 45.4178 1.61237 44.3866C0.581203 43.3555 0.00132391 41.9573 0 40.499V17.839C0.00132296 16.8239 0.405135 15.8507 1.12292 15.1329C1.84071 14.4151 2.81387 14.0113 3.82898 14.01H6.573V4.16101C6.57485 3.05767 7.01412 2.00006 7.79449 1.22006C8.57486 0.440067 9.63268 0.00132204 10.736 0H35.263C36.3667 0.00132321 37.4248 0.440337 38.2052 1.22076C38.9856 2.00119 39.4247 3.0593 39.426 4.16299V8.186C39.426 8.27452 39.4086 8.36217 39.3747 8.44394C39.3408 8.52571 39.2912 8.60001 39.2286 8.6626C39.166 8.72518 39.0917 8.77481 39.0099 8.80869C38.9282 8.84256 38.8405 8.85999 38.752 8.85999C38.6635 8.85999 38.5759 8.84256 38.4941 8.80869C38.4123 8.77481 38.338 8.72518 38.2754 8.6626C38.2128 8.60001 38.1632 8.52571 38.1293 8.44394C38.0955 8.36217 38.078 8.27452 38.078 8.186V4.16299C38.0772 3.41665 37.7804 2.70111 37.2526 2.17337C36.7249 1.64563 36.0093 1.34879 35.263 1.34799H10.736C9.98968 1.34879 9.27414 1.64563 8.7464 2.17337C8.21866 2.70111 7.92181 3.41665 7.92102 4.16299V14.012H11.3C12.0405 14.0121 12.7652 14.2268 13.3863 14.63C14.0074 15.0332 14.4984 15.6077 14.8 16.284L15.327 17.469C15.3977 17.6289 15.5135 17.7648 15.6602 17.86C15.8069 17.9552 15.9781 18.0056 16.153 18.005H38.086V11.416C38.086 11.3275 38.1035 11.2399 38.1373 11.1581C38.1712 11.0763 38.2208 11.002 38.2834 10.9394C38.346 10.8768 38.4203 10.8272 38.5021 10.7933C38.5838 10.7594 38.6715 10.742 38.76 10.742C38.8485 10.742 38.9362 10.7594 39.0179 10.7933C39.0997 10.8272 39.174 10.8768 39.2366 10.9394C39.2992 11.002 39.3488 11.0763 39.3827 11.1581C39.4166 11.2399 39.434 11.3275 39.434 11.416L39.427 18ZM26.127 27.4H33.082C33.2607 27.4 33.4322 27.471 33.5586 27.5974C33.685 27.7238 33.756 27.8952 33.756 28.074C33.756 28.2528 33.685 28.4242 33.5586 28.5506C33.4322 28.677 33.2607 28.748 33.082 28.748H26.127C25.9483 28.748 25.7768 28.677 25.6504 28.5506C25.524 28.4242 25.453 28.2528 25.453 28.074C25.453 27.8952 25.524 27.7238 25.6504 27.5974C25.7768 27.471 25.9483 27.4 26.127 27.4ZM32.615 32.676C32.4362 32.676 32.2648 32.605 32.1384 32.4786C32.012 32.3522 31.941 32.1808 31.941 32.002C31.941 31.8233 32.012 31.6518 32.1384 31.5254C32.2648 31.399 32.4362 31.328 32.615 31.328H39.605C39.7837 31.328 39.9552 31.399 40.0816 31.5254C40.208 31.6518 40.279 31.8233 40.279 32.002C40.279 32.1808 40.208 32.3522 40.0816 32.4786C39.9552 32.605 39.7837 32.676 39.605 32.676H32.615ZM39.605 28.748C39.7837 28.748 39.9552 28.677 40.0816 28.5506C40.208 28.4242 40.279 28.2528 40.279 28.074C40.279 27.8952 40.208 27.7238 40.0816 27.5974C39.9552 27.471 39.7837 27.4 39.605 27.4H36.3C36.1212 27.4 35.9498 27.471 35.8234 27.5974C35.697 27.7238 35.626 27.8952 35.626 28.074C35.626 28.2528 35.697 28.4242 35.8234 28.5506C35.9498 28.677 36.1212 28.748 36.3 28.748H39.605ZM11.559 37.189C11.5596 37.6538 11.7444 38.0993 12.073 38.428C12.4016 38.7566 12.8472 38.9415 13.312 38.942H15.334C15.7982 38.9407 16.2431 38.7555 16.571 38.4269C16.899 38.0984 17.0835 37.6532 17.084 37.189V34.765H19.508C19.9728 34.7645 20.4183 34.5796 20.7469 34.251C21.0756 33.9223 21.2605 33.4768 21.261 33.012V30.993C21.2605 30.5282 21.0756 30.0827 20.7469 29.754C20.4183 29.4254 19.9728 29.2405 19.508 29.24H17.084V26.816C17.084 26.3516 16.8997 25.9062 16.5716 25.5775C16.2435 25.2488 15.7984 25.0638 15.334 25.063H13.312C12.8472 25.0635 12.4016 25.2484 12.073 25.577C11.7444 25.9057 11.5596 26.3512 11.559 26.816V29.24H9.13501C8.67061 29.2408 8.2255 29.4258 7.8974 29.7545C7.5693 30.0832 7.38501 30.5286 7.38501 30.993V33.012C7.38501 33.4764 7.5693 33.9218 7.8974 34.2505C8.2255 34.5792 8.67061 34.7642 9.13501 34.765H11.559V37.189ZM8.73199 33.012C8.73199 33.1181 8.77417 33.2198 8.84918 33.2948C8.9242 33.3698 9.02593 33.412 9.13202 33.412H12.232C12.3205 33.4119 12.4083 33.4292 12.4901 33.463C12.5719 33.4969 12.6462 33.5465 12.7089 33.6091C12.7715 33.6717 12.8212 33.7461 12.855 33.8279C12.8888 33.9097 12.9061 33.9975 12.906 34.086V37.186C12.9073 37.2917 12.9499 37.3927 13.0246 37.4674C13.0993 37.5421 13.2003 37.5847 13.306 37.586H15.328C15.4341 37.586 15.5358 37.5439 15.6108 37.4688C15.6859 37.3938 15.728 37.2921 15.728 37.186V34.086C15.7279 33.9975 15.7452 33.9097 15.7791 33.8279C15.8129 33.7461 15.8625 33.6717 15.9251 33.6091C15.9877 33.5465 16.0621 33.4969 16.1439 33.463C16.2258 33.4292 16.3134 33.4119 16.402 33.412H19.502C19.6076 33.4104 19.7085 33.3678 19.7831 33.2931C19.8578 33.2184 19.9004 33.1176 19.902 33.012V30.993C19.9007 30.8873 19.8581 30.7863 19.7834 30.7116C19.7087 30.6368 19.6077 30.5943 19.502 30.593H16.402C16.3134 30.5931 16.2258 30.5758 16.1439 30.542C16.0621 30.5081 15.9877 30.4585 15.9251 30.3959C15.8625 30.3333 15.8129 30.2589 15.7791 30.1771C15.7452 30.0953 15.7279 30.0076 15.728 29.919V26.819C15.728 26.7129 15.6859 26.6112 15.6108 26.5362C15.5358 26.4611 15.4341 26.419 15.328 26.419H13.306C13.2003 26.4203 13.0993 26.4629 13.0246 26.5376C12.9499 26.6123 12.9073 26.7133 12.906 26.819V29.919C12.9061 30.0076 12.8888 30.0953 12.855 30.1771C12.8212 30.2589 12.7715 30.3333 12.7089 30.3959C12.6462 30.4585 12.5719 30.5081 12.4901 30.542C12.4083 30.5758 12.3205 30.5931 12.232 30.593H9.13202C9.02593 30.593 8.9242 30.6351 8.84918 30.7101C8.77417 30.7852 8.73199 30.8869 8.73199 30.993V33.012ZM17.78 6.71799V5.642C17.78 5.46324 17.709 5.2918 17.5826 5.16541C17.4562 5.03901 17.2848 4.96799 17.106 4.96799C16.9273 4.96799 16.7558 5.03901 16.6294 5.16541C16.503 5.2918 16.432 5.46324 16.432 5.642V6.71799C16.432 6.89674 16.503 7.06818 16.6294 7.19458C16.7558 7.32098 16.9273 7.392 17.106 7.392C17.2848 7.392 17.4562 7.32098 17.5826 7.19458C17.709 7.06818 17.78 6.89674 17.78 6.71799ZM25.059 7.155C24.8026 7.44972 24.4859 7.68601 24.1304 7.84793C23.7748 8.00985 23.3887 8.09366 22.998 8.09366C22.6073 8.09366 22.2212 8.00985 21.8657 7.84793C21.5101 7.68601 21.1935 7.44972 20.937 7.155C20.8776 7.08862 20.8319 7.01111 20.8026 6.92694C20.7734 6.84278 20.7611 6.75364 20.7666 6.6647C20.7721 6.57577 20.7952 6.48882 20.8345 6.40887C20.8739 6.32893 20.9287 6.25756 20.9958 6.19897C21.0629 6.14038 21.1411 6.09574 21.2256 6.06757C21.3101 6.03939 21.3994 6.02828 21.4882 6.03488C21.5771 6.04149 21.6638 6.06569 21.7432 6.10605C21.8227 6.14641 21.8933 6.20212 21.951 6.26999C22.0813 6.41952 22.2421 6.53941 22.4226 6.62155C22.6031 6.70369 22.7992 6.74619 22.9975 6.74619C23.1958 6.74619 23.3919 6.70369 23.5724 6.62155C23.7529 6.53941 23.9137 6.41952 24.044 6.26999C24.1017 6.20212 24.1723 6.14641 24.2518 6.10605C24.3312 6.06569 24.4179 6.04149 24.5068 6.03488C24.5956 6.02828 24.6849 6.03939 24.7694 6.06757C24.8539 6.09574 24.9321 6.14038 24.9992 6.19897C25.0663 6.25756 25.1211 6.32893 25.1605 6.40887C25.1998 6.48882 25.2229 6.57577 25.2284 6.6647C25.2339 6.75364 25.2216 6.84278 25.1924 6.92694C25.1631 7.01111 25.1174 7.08862 25.058 7.155H25.059ZM29.675 6.68799C29.675 6.86674 29.746 7.03818 29.8724 7.16458C29.9988 7.29098 30.1702 7.362 30.349 7.362C30.5278 7.362 30.6992 7.29098 30.8256 7.16458C30.952 7.03818 31.023 6.86674 31.023 6.68799C31.023 6.17798 30.8204 5.68888 30.4598 5.32825C30.0991 4.96761 29.61 4.76501 29.1 4.76501C28.59 4.76501 28.1009 4.96761 27.7402 5.32825C27.3796 5.68888 27.177 6.17798 27.177 6.68799C27.177 6.86674 27.248 7.03818 27.3744 7.16458C27.5008 7.29098 27.6723 7.362 27.851 7.362C28.0298 7.362 28.2012 7.29098 28.3276 7.16458C28.454 7.03818 28.525 6.86674 28.525 6.68799C28.525 6.53549 28.5856 6.38924 28.6934 6.2814C28.8013 6.17357 28.9475 6.11301 29.1 6.11301C29.2525 6.11301 29.3988 6.17357 29.5066 6.2814C29.6144 6.38924 29.675 6.53549 29.675 6.68799ZM28.946 14.688C28.9461 14.7765 28.9288 14.8642 28.895 14.9461C28.8611 15.0279 28.8115 15.1023 28.7489 15.1649C28.6863 15.2275 28.6119 15.2771 28.5301 15.311C28.4483 15.3448 28.3605 15.3621 28.272 15.362H17.726C17.5473 15.362 17.3758 15.291 17.2494 15.1646C17.123 15.0382 17.052 14.8667 17.052 14.688C17.052 14.5092 17.123 14.3378 17.2494 14.2114C17.3758 14.085 17.5473 14.014 17.726 14.014H28.274C28.4523 14.0137 28.6234 14.0842 28.7498 14.2101C28.8762 14.3359 28.9475 14.5067 28.948 14.685L28.946 14.688ZM26.126 32.679H29.4C29.5788 32.679 29.7502 32.608 29.8766 32.4816C30.003 32.3552 30.074 32.1838 30.074 32.005C30.074 31.8262 30.003 31.6548 29.8766 31.5284C29.7502 31.402 29.5788 31.331 29.4 31.331H26.129C25.9503 31.331 25.7788 31.402 25.6524 31.5284C25.526 31.6548 25.455 31.8262 25.455 32.005C25.455 32.1838 25.526 32.3552 25.6524 32.4816C25.7788 32.608 25.9503 32.679 26.129 32.679H26.126ZM34.282 36.607H26.126C25.9472 36.607 25.7758 36.536 25.6494 36.4096C25.523 36.2832 25.452 36.1118 25.452 35.933C25.452 35.7543 25.523 35.5828 25.6494 35.4564C25.7758 35.33 25.9472 35.259 26.126 35.259H34.282C34.4607 35.259 34.6322 35.33 34.7586 35.4564C34.885 35.5828 34.956 35.7543 34.956 35.933C34.956 36.1118 34.885 36.2832 34.7586 36.4096C34.6322 36.536 34.4607 36.607 34.282 36.607Z" fill="#7065E4"/>
</svg>
