<svg width="16" height="20" viewBox="0 0 16 20" fill="none" xmlns="http://www.w3.org/2000/svg">
<path d="M3.85301 20C3.00199 19.9989 2.18612 19.6604 1.58436 19.0586C0.982599 18.4569 0.644064 17.641 0.643005 16.79L0.643005 5.81899C0.644064 4.96797 0.982599 4.15211 1.58436 3.55035C2.18612 2.94859 3.00199 2.61005 3.85301 2.60899L12.143 2.60899C12.994 2.61005 13.8099 2.94859 14.4116 3.55035C15.0134 4.15211 15.3519 4.96797 15.353 5.81899V16.79C15.3519 17.641 15.0134 18.4569 14.4116 19.0586C13.8099 19.6604 12.994 19.9989 12.143 20H3.85301Z" fill="#8379EE"/>
<path d="M3.85202 2.609C3.57785 2.60737 3.30461 2.64098 3.03902 2.709C2.85968 3.45852 2.85255 4.23894 3.01814 4.99161C3.18374 5.74429 3.51776 6.44964 3.99511 7.05468C4.47247 7.65972 5.08073 8.14871 5.77421 8.48491C6.46769 8.82111 7.22834 8.99576 7.99902 8.99576C8.76969 8.99576 9.53034 8.82111 10.2238 8.48491C10.9173 8.14871 11.5256 7.65972 12.0029 7.05468C12.4803 6.44964 12.8143 5.74429 12.9799 4.99161C13.1455 4.23894 13.1384 3.45852 12.959 2.709C12.6937 2.64107 12.4208 2.60746 12.147 2.609H3.85202Z" fill="#5546F1"/>
<path d="M10.063 18.343H3.85302C3.44114 18.343 3.04613 18.1794 2.75488 17.8881C2.46364 17.5969 2.30002 17.2019 2.30002 16.79V5.81901C2.30002 5.40713 2.46364 5.01211 2.75488 4.72087C3.04613 4.42963 3.44114 4.26601 3.85302 4.26601H12.147C12.351 4.26601 12.5529 4.30618 12.7413 4.38422C12.9297 4.46227 13.1009 4.57666 13.2452 4.72087C13.3894 4.86508 13.5038 5.03628 13.5818 5.2247C13.6598 5.41312 13.7 5.61506 13.7 5.81901V14.706C13.7 15.564 10.921 18.343 10.063 18.343Z" fill="#FFF1C2"/>
<path d="M13.053 4.55799C12.789 4.36753 12.4716 4.26534 12.146 4.26599H3.85301C3.52747 4.26534 3.21003 4.36753 2.94601 4.55799C3.10943 5.78309 3.71176 6.9073 4.64119 7.72198C5.57063 8.53667 6.76407 8.9865 8.00001 8.98799C9.23579 8.98626 10.429 8.53632 11.3582 7.72165C12.2874 6.90699 12.8896 5.78292 13.053 4.55799Z" fill="#FCD6A4"/>
<path d="M8.00002 7.78C10.1484 7.78 11.89 6.03839 11.89 3.89C11.89 1.74161 10.1484 0 8.00002 0C5.85163 0 4.11002 1.74161 4.11002 3.89C4.11002 6.03839 5.85163 7.78 8.00002 7.78Z" fill="#FA8B7C"/>
<path d="M8.00002 7.78C8.54148 7.78071 9.07709 7.66808 9.57241 7.44935C10.0677 7.23063 10.5118 6.91065 10.876 6.51C6.31502 6.911 5.32802 1.941 6.49902 0.300003C5.67012 0.647125 4.98692 1.27046 4.56546 2.06415C4.144 2.85784 4.01026 3.77295 4.18695 4.65405C4.36364 5.53516 4.83988 6.32795 5.53477 6.89777C6.22966 7.46759 7.10037 7.77931 7.99902 7.78H8.00002Z" fill="#F76956"/>
<path d="M8.76801 2.91801V1.78501C8.76801 1.73196 8.74694 1.68109 8.70943 1.64359C8.67192 1.60608 8.62105 1.58501 8.56801 1.58501H7.43501C7.38196 1.58501 7.33109 1.60608 7.29359 1.64359C7.25608 1.68109 7.23501 1.73196 7.23501 1.78501V2.91801C7.23501 2.97105 7.21394 3.02192 7.17643 3.05943C7.13892 3.09694 7.08805 3.11801 7.03501 3.11801H5.89501C5.84196 3.11801 5.79109 3.13908 5.75359 3.17659C5.71608 3.21409 5.69501 3.26496 5.69501 3.31801V4.45401C5.69501 4.48027 5.70018 4.50628 5.71023 4.53054C5.72028 4.55481 5.73501 4.57686 5.75359 4.59543C5.77216 4.614 5.79421 4.62873 5.81847 4.63878C5.84274 4.64883 5.86874 4.65401 5.89501 4.65401H7.02801C7.08105 4.65401 7.13192 4.67508 7.16943 4.71259C7.20694 4.75009 7.22801 4.80096 7.22801 4.85401V5.99101C7.22801 6.01727 7.23318 6.04328 7.24323 6.06754C7.25328 6.09181 7.26801 6.11386 7.28659 6.13243C7.30516 6.151 7.32721 6.16573 7.35147 6.17578C7.37574 6.18583 7.40174 6.19101 7.42801 6.19101H8.56401C8.59027 6.19101 8.61628 6.18583 8.64054 6.17578C8.66481 6.16573 8.68686 6.151 8.70543 6.13243C8.724 6.11386 8.73873 6.09181 8.74878 6.06754C8.75883 6.04328 8.76401 6.01727 8.76401 5.99101V4.86201C8.76401 4.80896 8.78508 4.75809 8.82259 4.72059C8.86009 4.68308 8.91096 4.66201 8.96401 4.66201H10.101C10.1273 4.66201 10.1533 4.65683 10.1775 4.64678C10.2018 4.63673 10.2239 4.622 10.2424 4.60343C10.261 4.58486 10.2757 4.56281 10.2858 4.53854C10.2958 4.51428 10.301 4.48827 10.301 4.46201V3.32501C10.301 3.29874 10.2958 3.27274 10.2858 3.24847C10.2757 3.2242 10.261 3.20216 10.2424 3.18359C10.2239 3.16501 10.2018 3.15028 10.1775 3.14023C10.1533 3.13018 10.1273 3.12501 10.101 3.12501H8.97201C8.94481 3.12557 8.91778 3.12057 8.89258 3.11033C8.86738 3.10009 8.84453 3.08481 8.82543 3.06543C8.80634 3.04606 8.7914 3.02299 8.78152 2.99764C8.77165 2.97229 8.76705 2.94519 8.76801 2.91801Z" fill="white"/>
<path d="M11.969 15.059C11.5571 15.059 11.1621 15.2226 10.8709 15.5139C10.5796 15.8051 10.416 16.2001 10.416 16.612V17.006C10.416 17.3603 10.2753 17.7001 10.0247 17.9507C9.77416 18.2012 9.43435 18.342 9.08002 18.342H10.063C11.0273 18.3417 11.9519 17.9586 12.6338 17.2767C13.3156 16.5949 13.6988 15.6702 13.699 14.706V13.723C13.699 14.0773 13.5583 14.4171 13.3077 14.6677C13.0572 14.9182 12.7173 15.059 12.363 15.059H11.969Z" fill="#FCD6A4"/>
<path d="M10.909 13.155H5.091C5.0133 13.155 4.93877 13.1241 4.88382 13.0692C4.82887 13.0142 4.798 12.9397 4.798 12.862C4.798 12.7843 4.82887 12.7098 4.88382 12.6548C4.93877 12.5999 5.0133 12.569 5.091 12.569H10.909C10.9867 12.569 11.0612 12.5999 11.1162 12.6548C11.1711 12.7098 11.202 12.7843 11.202 12.862C11.202 12.9397 11.1711 13.0142 11.1162 13.0692C11.0612 13.1241 10.9867 13.155 10.909 13.155Z" fill="#4E5660"/>
<path d="M9.38899 14.612H6.61099C6.53328 14.612 6.45876 14.5811 6.40381 14.5262C6.34886 14.4712 6.31799 14.3967 6.31799 14.319C6.31799 14.2413 6.34886 14.1668 6.40381 14.1118C6.45876 14.0569 6.53328 14.026 6.61099 14.026H9.38899C9.4667 14.026 9.54123 14.0569 9.59618 14.1118C9.65112 14.1668 9.68199 14.2413 9.68199 14.319C9.68199 14.3967 9.65112 14.4712 9.59618 14.5262C9.54123 14.5811 9.4667 14.612 9.38899 14.612Z" fill="#4E5660"/>
<path d="M7.43102 6.195H8.56402C8.574 6.19575 8.58403 6.19575 8.59402 6.195C8.07331 5.97225 7.60798 5.63768 7.23102 5.215V5.991C7.23102 6.04404 7.25209 6.09491 7.2896 6.13242C7.3271 6.16992 7.37797 6.191 7.43102 6.191V6.195Z" fill="#FCF2D0"/>
<path d="M5.89502 4.65899H6.80502C6.50804 4.18655 6.29427 3.66669 6.17302 3.12199H5.89502C5.84197 3.12199 5.7911 3.14307 5.7536 3.18057C5.71609 3.21808 5.69502 3.26895 5.69502 3.32199V4.45499C5.69448 4.48159 5.69926 4.50803 5.70908 4.53276C5.71889 4.55749 5.73354 4.58001 5.75216 4.59901C5.77079 4.61801 5.79302 4.6331 5.81754 4.6434C5.84207 4.6537 5.86841 4.659 5.89502 4.65899Z" fill="#FCF2D0"/>
<path d="M4.637 11.974C5.32238 11.974 5.878 11.5317 5.878 10.986C5.878 10.4403 5.32238 9.998 4.637 9.998C3.95161 9.998 3.396 10.4403 3.396 10.986C3.396 11.5317 3.95161 11.974 4.637 11.974Z" fill="#8EEDF8"/>
<path d="M11.362 11.974C12.0474 11.974 12.603 11.5317 12.603 10.986C12.603 10.4403 12.0474 9.998 11.362 9.998C10.6766 9.998 10.121 10.4403 10.121 10.986C10.121 11.5317 10.6766 11.974 11.362 11.974Z" fill="#8EEDF8"/>
<path d="M5.35999 10.316C5.28228 10.316 5.20775 10.2851 5.1528 10.2302C5.09786 10.1752 5.06699 10.1007 5.06699 10.023V9.53999C5.06699 9.46229 5.09786 9.38776 5.1528 9.33281C5.20775 9.27786 5.28228 9.24699 5.35999 9.24699C5.43769 9.24699 5.51222 9.27786 5.56717 9.33281C5.62212 9.38776 5.65299 9.46229 5.65299 9.53999V10.023C5.65299 10.1007 5.62212 10.1752 5.56717 10.2302C5.51222 10.2851 5.43769 10.316 5.35999 10.316Z" fill="#4E5660"/>
<path d="M7.99998 10.627C7.82636 10.6273 7.65469 10.5904 7.49652 10.5188C7.33835 10.4472 7.19734 10.3426 7.08298 10.212C7.0577 10.183 7.03838 10.1493 7.02613 10.1128C7.01388 10.0763 7.00894 10.0377 7.01159 9.99934C7.01693 9.92179 7.05286 9.84955 7.11148 9.79849C7.17009 9.74744 7.24658 9.72176 7.32413 9.7271C7.40168 9.73245 7.47392 9.76838 7.52498 9.82699C7.58403 9.89502 7.65699 9.94959 7.73893 9.98703C7.82087 10.0245 7.90989 10.0439 7.99998 10.044C8.09006 10.0439 8.17908 10.0245 8.26102 9.98703C8.34296 9.94959 8.41592 9.89502 8.47498 9.82699C8.52603 9.76838 8.59828 9.73245 8.67582 9.7271C8.75337 9.72176 8.82986 9.74744 8.88848 9.79849C8.94709 9.84955 8.98302 9.92179 8.98837 9.99934C8.99371 10.0769 8.96803 10.1534 8.91698 10.212C8.80261 10.3426 8.6616 10.4472 8.50343 10.5188C8.34526 10.5904 8.17359 10.6273 7.99998 10.627Z" fill="#4E5660"/>
<path d="M11.292 10.303C11.2143 10.303 11.1398 10.2721 11.0848 10.2172C11.0299 10.1622 10.999 10.0877 10.999 10.01C11.0012 9.97362 10.996 9.93718 10.9836 9.90291C10.9712 9.86864 10.9519 9.83727 10.927 9.81073C10.902 9.78419 10.8719 9.76304 10.8384 9.74858C10.805 9.73412 10.7689 9.72666 10.7325 9.72666C10.696 9.72666 10.66 9.73412 10.6265 9.74858C10.5931 9.76304 10.563 9.78419 10.538 9.81073C10.513 9.83727 10.4938 9.86864 10.4814 9.90291C10.469 9.93718 10.4638 9.97362 10.466 10.01C10.466 10.0877 10.4351 10.1622 10.3802 10.2172C10.3252 10.2721 10.2507 10.303 10.173 10.303C10.0953 10.303 10.0208 10.2721 9.9658 10.2172C9.91086 10.1622 9.87999 10.0877 9.87999 10.01C9.87607 9.89559 9.89522 9.78156 9.93629 9.67471C9.97737 9.56786 10.0395 9.47037 10.1191 9.38804C10.1986 9.30572 10.2939 9.24026 10.3993 9.19555C10.5047 9.15083 10.618 9.12779 10.7325 9.12779C10.847 9.12779 10.9603 9.15083 11.0656 9.19555C11.171 9.24026 11.2663 9.30572 11.3459 9.38804C11.4254 9.47037 11.4876 9.56786 11.5287 9.67471C11.5698 9.78156 11.5889 9.89559 11.585 10.01C11.585 10.0877 11.5541 10.1622 11.4992 10.2172C11.4442 10.2721 11.3697 10.303 11.292 10.303Z" fill="#4E5660"/>
<path d="M4.717 16.733C5.1627 16.733 5.524 16.3717 5.524 15.926C5.524 15.4803 5.1627 15.119 4.717 15.119C4.27131 15.119 3.91 15.4803 3.91 15.926C3.91 16.3717 4.27131 16.733 4.717 16.733Z" fill="#8EEDF8"/>
</svg>
