<svg width="26" height="25" viewBox="0 0 26 25" fill="none" xmlns="http://www.w3.org/2000/svg">
<path d="M15.315 5.06103C15.3495 4.99406 15.358 4.91672 15.3388 4.84389C15.3196 4.77106 15.2742 4.7079 15.2113 4.66656C15.1483 4.62522 15.0723 4.60862 14.9979 4.61997C14.9234 4.63132 14.8558 4.66981 14.808 4.72803C13.4123 6.46324 12.5165 8.54638 12.217 10.753C12.0556 11.5808 11.6502 12.3414 11.053 12.937C10.7346 13.2697 10.5166 13.6855 10.4242 14.1367C10.3318 14.5878 10.3687 15.0559 10.5307 15.4869C10.6927 15.918 10.9732 16.2945 11.3399 16.5731C11.7065 16.8517 12.1445 17.0211 12.6032 17.0616C13.0619 17.1022 13.5228 17.0123 13.9326 16.8024C14.3425 16.5925 14.6847 16.271 14.9198 15.875C15.155 15.4791 15.2735 15.0248 15.2616 14.5644C15.2498 14.104 15.1082 13.6564 14.853 13.273C14.1861 12.3213 13.8882 11.1593 14.015 10.004C14.195 8.29993 14.6333 6.63316 15.315 5.06103Z" fill="#0C0B52"/>
<path d="M21.0621 21.347H4.56705C4.40518 21.347 4.24992 21.2828 4.13537 21.1684C4.02081 21.054 3.95632 20.8989 3.95605 20.737V13.405C3.95605 13.243 4.02043 13.0875 4.13501 12.973C4.2496 12.8584 4.40501 12.794 4.56705 12.794H9.29205C8.97705 13.3993 8.82331 14.0755 8.84569 14.7575C8.86807 15.4395 9.06579 16.1042 9.4198 16.6875C9.77381 17.2708 10.2722 17.7531 10.8668 18.0878C11.4614 18.4224 12.1322 18.5983 12.8146 18.5983C13.4969 18.5983 14.1677 18.4224 14.7623 18.0878C15.357 17.7531 15.8553 17.2708 16.2093 16.6875C16.5633 16.1042 16.761 15.4395 16.7834 14.7575C16.8058 14.0755 16.6521 13.3993 16.3371 12.794L21.0621 12.794C21.2241 12.794 21.3795 12.8584 21.4941 12.973C21.6087 13.0875 21.6731 13.243 21.6731 13.405V20.737C21.6728 20.8989 21.6083 21.054 21.4937 21.1684C21.3792 21.2828 21.2239 21.347 21.0621 21.347ZM20.1461 19.209C20.0857 19.209 20.0268 19.2269 19.9766 19.2604C19.9264 19.2939 19.8874 19.3416 19.8643 19.3973C19.8412 19.453 19.8351 19.5143 19.8469 19.5735C19.8587 19.6327 19.8877 19.687 19.9304 19.7297C19.973 19.7723 20.0274 19.8014 20.0866 19.8131C20.1457 19.8249 20.207 19.8189 20.2628 19.7958C20.3185 19.7727 20.3661 19.7336 20.3997 19.6835C20.4332 19.6333 20.4511 19.5743 20.4511 19.514C20.4508 19.4332 20.4186 19.3558 20.3614 19.2986C20.3043 19.2415 20.2269 19.2093 20.1461 19.209ZM18.3131 19.209C18.2527 19.209 18.1938 19.2269 18.1436 19.2604C18.0934 19.2939 18.0544 19.3416 18.0313 19.3973C18.0082 19.453 18.0021 19.5143 18.0139 19.5735C18.0257 19.6327 18.0547 19.687 18.0974 19.7297C18.14 19.7723 18.1944 19.8014 18.2536 19.8131C18.3127 19.8249 18.374 19.8189 18.4298 19.7958C18.4855 19.7727 18.5331 19.7336 18.5667 19.6835C18.6002 19.6333 18.6181 19.5743 18.6181 19.514C18.6178 19.4332 18.5856 19.3558 18.5284 19.2986C18.4713 19.2415 18.3939 19.2093 18.3131 19.209ZM16.4801 19.209C16.4197 19.209 16.3608 19.2269 16.3106 19.2604C16.2604 19.2939 16.2214 19.3416 16.1983 19.3973C16.1752 19.453 16.1691 19.5143 16.1809 19.5735C16.1927 19.6327 16.2217 19.687 16.2644 19.7297C16.307 19.7723 16.3614 19.8014 16.4206 19.8131C16.4797 19.8249 16.541 19.8189 16.5968 19.7958C16.6525 19.7727 16.7001 19.7336 16.7337 19.6835C16.7672 19.6333 16.7851 19.5743 16.7851 19.514C16.7848 19.4334 16.7527 19.3561 16.6958 19.299C16.6389 19.2419 16.5617 19.2095 16.4811 19.209H16.4801ZM14.6471 19.209C14.5869 19.2098 14.5283 19.2284 14.4787 19.2623C14.4291 19.2963 14.3906 19.3442 14.3681 19.4C14.3457 19.4558 14.3402 19.517 14.3524 19.5759C14.3646 19.6348 14.394 19.6888 14.4368 19.731C14.4796 19.7733 14.534 19.802 14.593 19.8134C14.6521 19.8249 14.7132 19.8186 14.7687 19.7954C14.8242 19.7722 14.8716 19.7331 14.9049 19.683C14.9383 19.633 14.956 19.5742 14.9561 19.514C14.9559 19.4737 14.9478 19.4339 14.9323 19.3967C14.9167 19.3596 14.894 19.3259 14.8654 19.2976C14.8368 19.2692 14.8028 19.2468 14.7655 19.2316C14.7282 19.2164 14.6883 19.2087 14.6481 19.209H14.6471ZM12.8141 19.209C12.7537 19.209 12.6948 19.2269 12.6446 19.2604C12.5944 19.2939 12.5554 19.3416 12.5323 19.3973C12.5092 19.453 12.5031 19.5143 12.5149 19.5735C12.5267 19.6327 12.5557 19.687 12.5984 19.7297C12.641 19.7723 12.6954 19.8014 12.7546 19.8131C12.8137 19.8249 12.875 19.8189 12.9308 19.7958C12.9865 19.7727 13.0341 19.7336 13.0677 19.6835C13.1012 19.6333 13.1191 19.5743 13.1191 19.514C13.1188 19.4334 13.0867 19.3561 13.0298 19.299C12.9729 19.2419 12.8957 19.2095 12.8151 19.209H12.8141ZM10.9811 19.209C10.9207 19.209 10.8618 19.2269 10.8116 19.2604C10.7614 19.2939 10.7224 19.3416 10.6993 19.3973C10.6762 19.453 10.6701 19.5143 10.6819 19.5735C10.6937 19.6327 10.7227 19.687 10.7654 19.7297C10.808 19.7723 10.8624 19.8014 10.9216 19.8131C10.9807 19.8249 11.042 19.8189 11.0978 19.7958C11.1535 19.7727 11.2011 19.7336 11.2347 19.6835C11.2682 19.6333 11.2861 19.5743 11.2861 19.514C11.2858 19.4334 11.2537 19.3561 11.1968 19.299C11.1399 19.2419 11.0627 19.2095 10.9821 19.209H10.9811ZM9.14805 19.209C9.08786 19.2096 9.02919 19.228 8.97943 19.2619C8.92967 19.2957 8.89105 19.3436 8.86842 19.3994C8.84579 19.4551 8.84018 19.5164 8.85229 19.5753C8.86439 19.6343 8.89367 19.6884 8.93645 19.7307C8.97922 19.7731 9.03357 19.8018 9.09265 19.8133C9.15173 19.8249 9.2129 19.8187 9.26846 19.7955C9.32401 19.7723 9.37147 19.7332 9.40485 19.6831C9.43824 19.633 9.45605 19.5742 9.45605 19.514C9.45592 19.4738 9.44788 19.4341 9.43238 19.397C9.41688 19.3599 9.39423 19.3262 9.36572 19.2979C9.33721 19.2696 9.30341 19.2472 9.26623 19.2319C9.22906 19.2167 9.18924 19.2089 9.14905 19.209H9.14805ZM7.31605 19.209C7.25573 19.209 7.19676 19.2269 7.14661 19.2604C7.09645 19.2939 7.05736 19.3416 7.03427 19.3973C7.01119 19.453 7.00515 19.5143 7.01692 19.5735C7.02868 19.6327 7.05773 19.687 7.10039 19.7297C7.14304 19.7723 7.19739 19.8014 7.25655 19.8131C7.31572 19.8249 7.37704 19.8189 7.43277 19.7958C7.4885 19.7727 7.53614 19.7336 7.56965 19.6835C7.60317 19.6333 7.62105 19.5743 7.62105 19.514C7.62079 19.4334 7.58871 19.3561 7.53179 19.299C7.47486 19.2419 7.39769 19.2095 7.31705 19.209H7.31605ZM5.48305 19.209C5.42273 19.209 5.36376 19.2269 5.31361 19.2604C5.26345 19.2939 5.22436 19.3416 5.20127 19.3973C5.17819 19.453 5.17215 19.5143 5.18392 19.5735C5.19568 19.6327 5.22473 19.687 5.26739 19.7297C5.31004 19.7723 5.36439 19.8014 5.42355 19.8131C5.48272 19.8249 5.54404 19.8189 5.59977 19.7958C5.6555 19.7727 5.70314 19.7336 5.73665 19.6835C5.77017 19.6333 5.78805 19.5743 5.78805 19.514C5.78779 19.4334 5.75571 19.3561 5.69879 19.299C5.64186 19.2419 5.56469 19.2095 5.48405 19.209H5.48305ZM19.2301 17.987C19.1695 17.9868 19.1102 18.0046 19.0598 18.0381C19.0093 18.0716 18.9699 18.1193 18.9466 18.1752C18.9233 18.2311 18.9171 18.2927 18.9288 18.3521C18.9405 18.4115 18.9696 18.4661 19.0123 18.509C19.0551 18.5519 19.1096 18.5812 19.169 18.5931C19.2284 18.6049 19.29 18.5989 19.3459 18.5758C19.4019 18.5527 19.4497 18.5135 19.4834 18.4631C19.5171 18.4128 19.5351 18.3536 19.5351 18.293C19.5351 18.212 19.503 18.1343 19.4458 18.077C19.3886 18.0196 19.311 17.9873 19.2301 17.987ZM17.3971 17.987C17.3365 17.9868 17.2772 18.0046 17.2268 18.0381C17.1763 18.0716 17.1369 18.1193 17.1136 18.1752C17.0903 18.2311 17.0841 18.2927 17.0958 18.3521C17.1075 18.4115 17.1366 18.4661 17.1793 18.509C17.2221 18.5519 17.2766 18.5812 17.336 18.5931C17.3954 18.6049 17.457 18.5989 17.5129 18.5758C17.5689 18.5527 17.6167 18.5135 17.6504 18.4631C17.6841 18.4128 17.7021 18.3536 17.7021 18.293C17.7021 18.212 17.67 18.1343 17.6128 18.077C17.5556 18.0196 17.478 17.9873 17.3971 17.987ZM8.23305 17.987C8.17249 17.9868 8.11323 18.0046 8.06278 18.0381C8.01233 18.0716 7.97295 18.1193 7.94964 18.1752C7.92632 18.2311 7.92012 18.2927 7.93181 18.3521C7.94351 18.4115 7.97257 18.4661 8.01533 18.509C8.05808 18.5519 8.1126 18.5812 8.17199 18.5931C8.23137 18.6049 8.29295 18.5989 8.34892 18.5758C8.4049 18.5527 8.45275 18.5135 8.48641 18.4631C8.52008 18.4128 8.53805 18.3536 8.53805 18.293C8.53805 18.212 8.50595 18.1343 8.44878 18.077C8.39161 18.0196 8.31404 17.9873 8.23305 17.987ZM6.40005 17.987C6.33949 17.9868 6.28023 18.0046 6.22978 18.0381C6.17933 18.0716 6.13995 18.1193 6.11664 18.1752C6.09332 18.2311 6.08712 18.2927 6.09881 18.3521C6.11051 18.4115 6.13957 18.4661 6.18233 18.509C6.22508 18.5519 6.2796 18.5812 6.33899 18.5931C6.39837 18.6049 6.45995 18.5989 6.51592 18.5758C6.5719 18.5527 6.61975 18.5135 6.65341 18.4631C6.68708 18.4128 6.70505 18.3536 6.70505 18.293C6.70506 18.212 6.67295 18.1343 6.61578 18.077C6.55861 18.0196 6.48104 17.9873 6.40005 17.987ZM20.1461 16.765C20.0857 16.765 20.0268 16.7829 19.9766 16.8164C19.9264 16.8499 19.8874 16.8976 19.8643 16.9533C19.8412 17.009 19.8351 17.0703 19.8469 17.1295C19.8587 17.1887 19.8877 17.243 19.9304 17.2857C19.973 17.3283 20.0274 17.3574 20.0866 17.3691C20.1457 17.3809 20.207 17.3749 20.2628 17.3518C20.3185 17.3287 20.3661 17.2896 20.3997 17.2395C20.4332 17.1893 20.4511 17.1303 20.4511 17.07C20.4508 16.9892 20.4186 16.9118 20.3614 16.8546C20.3043 16.7975 20.2269 16.7653 20.1461 16.765ZM18.3131 16.765C18.2527 16.765 18.1938 16.7829 18.1436 16.8164C18.0934 16.8499 18.0544 16.8976 18.0313 16.9533C18.0082 17.009 18.0021 17.0703 18.0139 17.1295C18.0257 17.1887 18.0547 17.243 18.0974 17.2857C18.14 17.3283 18.1944 17.3574 18.2536 17.3691C18.3127 17.3809 18.374 17.3749 18.4298 17.3518C18.4855 17.3287 18.5331 17.2896 18.5667 17.2395C18.6002 17.1893 18.6181 17.1303 18.6181 17.07C18.6178 16.9892 18.5856 16.9118 18.5284 16.8546C18.4713 16.7975 18.3939 16.7653 18.3131 16.765ZM7.31305 16.765C7.25273 16.765 7.19376 16.7829 7.14361 16.8164C7.09345 16.8499 7.05436 16.8976 7.03127 16.9533C7.00819 17.009 7.00215 17.0703 7.01392 17.1295C7.02568 17.1887 7.05473 17.243 7.09739 17.2857C7.14004 17.3283 7.19439 17.3574 7.25355 17.3691C7.31272 17.3809 7.37404 17.3749 7.42977 17.3518C7.4855 17.3287 7.53314 17.2896 7.56665 17.2395C7.60017 17.1893 7.61805 17.1303 7.61805 17.07C7.6178 16.9899 7.58614 16.9131 7.52985 16.856C7.47357 16.799 7.39717 16.7663 7.31705 16.765H7.31305ZM5.48005 16.765C5.41973 16.765 5.36076 16.7829 5.31061 16.8164C5.26045 16.8499 5.22136 16.8976 5.19827 16.9533C5.17519 17.009 5.16915 17.0703 5.18092 17.1295C5.19268 17.1887 5.22173 17.243 5.26439 17.2857C5.30704 17.3283 5.36139 17.3574 5.42055 17.3691C5.47972 17.3809 5.54104 17.3749 5.59677 17.3518C5.6525 17.3287 5.70014 17.2896 5.73365 17.2395C5.76717 17.1893 5.78505 17.1303 5.78505 17.07C5.7848 16.9899 5.75314 16.9131 5.69685 16.856C5.64057 16.799 5.56417 16.7663 5.48405 16.765H5.48005ZM19.2301 15.543C19.1694 15.5428 19.1101 15.5606 19.0597 15.5942C19.0092 15.6277 18.9698 15.6755 18.9465 15.7314C18.9233 15.7874 18.9171 15.849 18.9289 15.9085C18.9407 15.9679 18.9698 16.0225 19.0127 16.0654C19.0555 16.1082 19.1102 16.1374 19.1696 16.1492C19.2291 16.1609 19.2907 16.1548 19.3466 16.1315C19.4026 16.1082 19.4504 16.0689 19.4839 16.0184C19.5174 15.9679 19.5353 15.9086 19.5351 15.848C19.5348 15.7672 19.5026 15.6898 19.4454 15.6326C19.3883 15.5755 19.3109 15.5433 19.2301 15.543ZM6.40005 15.543C6.33945 15.5428 6.28015 15.5606 6.22967 15.5942C6.1792 15.6277 6.13982 15.6755 6.11654 15.7314C6.09326 15.7874 6.08711 15.849 6.09889 15.9085C6.11066 15.9679 6.13983 16.0225 6.18268 16.0654C6.22554 16.1082 6.28015 16.1374 6.3396 16.1492C6.39905 16.1609 6.46066 16.1548 6.51662 16.1315C6.57257 16.1082 6.62035 16.0689 6.6539 16.0184C6.68745 15.9679 6.70525 15.9086 6.70505 15.848C6.70479 15.7672 6.67257 15.6898 6.61543 15.6326C6.55829 15.5755 6.48086 15.5433 6.40005 15.543ZM20.1461 14.322C20.0857 14.322 20.0268 14.3399 19.9766 14.3734C19.9264 14.4069 19.8874 14.4546 19.8643 14.5103C19.8412 14.566 19.8351 14.6273 19.8469 14.6865C19.8587 14.7457 19.8877 14.8 19.9304 14.8427C19.973 14.8853 20.0274 14.9144 20.0866 14.9261C20.1457 14.9379 20.207 14.9319 20.2628 14.9088C20.3185 14.8857 20.3661 14.8466 20.3997 14.7965C20.4332 14.7463 20.4511 14.6873 20.4511 14.627C20.4508 14.5462 20.4186 14.4688 20.3614 14.4116C20.3043 14.3545 20.2269 14.3223 20.1461 14.322ZM18.3131 14.322C18.2527 14.322 18.1938 14.3399 18.1436 14.3734C18.0934 14.4069 18.0544 14.4546 18.0313 14.5103C18.0082 14.566 18.0021 14.6273 18.0139 14.6865C18.0257 14.7457 18.0547 14.8 18.0974 14.8427C18.14 14.8853 18.1944 14.9144 18.2536 14.9261C18.3127 14.9379 18.374 14.9319 18.4298 14.9088C18.4855 14.8857 18.5331 14.8466 18.5667 14.7965C18.6002 14.7463 18.6181 14.6873 18.6181 14.627C18.6178 14.5462 18.5856 14.4688 18.5284 14.4116C18.4713 14.3545 18.3939 14.3223 18.3131 14.322ZM7.31305 14.322C7.25273 14.322 7.19376 14.3399 7.14361 14.3734C7.09345 14.4069 7.05436 14.4546 7.03127 14.5103C7.00819 14.566 7.00215 14.6273 7.01392 14.6865C7.02568 14.7457 7.05473 14.8 7.09739 14.8427C7.14004 14.8853 7.19439 14.9144 7.25355 14.9261C7.31272 14.9379 7.37404 14.9319 7.42977 14.9088C7.4855 14.8857 7.53314 14.8466 7.56665 14.7965C7.60017 14.7463 7.61805 14.6873 7.61805 14.627C7.6178 14.5469 7.58614 14.4701 7.52985 14.413C7.47357 14.356 7.39717 14.3233 7.31705 14.322H7.31305ZM5.48005 14.322C5.41973 14.322 5.36076 14.3399 5.31061 14.3734C5.26045 14.4069 5.22136 14.4546 5.19827 14.5103C5.17519 14.566 5.16915 14.6273 5.18092 14.6865C5.19268 14.7457 5.22173 14.8 5.26439 14.8427C5.30704 14.8853 5.36139 14.9144 5.42055 14.9261C5.47972 14.9379 5.54104 14.9319 5.59677 14.9088C5.6525 14.8857 5.70014 14.8466 5.73365 14.7965C5.76717 14.7463 5.78505 14.6873 5.78505 14.627C5.7848 14.5469 5.75314 14.4701 5.69685 14.413C5.64057 14.356 5.56417 14.3233 5.48405 14.322H5.48005Z" fill="#EF716B"/>
<path d="M8.08804 10.653C7.74577 10.653 7.40688 10.5852 7.091 10.4534C6.77511 10.3216 6.4885 10.1285 6.24773 9.8852C6.00696 9.64192 5.81682 9.35332 5.68831 9.03608C5.5598 8.71885 5.49547 8.37928 5.49904 8.03702C5.49904 7.06302 6.68504 4.98402 7.50504 3.92002C7.57344 3.83027 7.66164 3.75752 7.76276 3.70745C7.86388 3.65737 7.9752 3.63132 8.08804 3.63132C8.20088 3.63132 8.3122 3.65737 8.41333 3.70745C8.51445 3.75752 8.60264 3.83027 8.67104 3.92002C9.49104 4.98702 10.676 7.06702 10.676 8.03702C10.6796 8.37919 10.6153 8.71868 10.4869 9.03585C10.3584 9.35302 10.1684 9.64158 9.92771 9.88484C9.68704 10.1281 9.40055 10.3213 9.08478 10.4531C8.76901 10.585 8.43023 10.6529 8.08804 10.653ZM6.98004 7.02202C6.92267 7.02192 6.86643 7.03801 6.81778 7.06843C6.76914 7.09886 6.73006 7.14239 6.70504 7.19402C6.58809 7.43028 6.51977 7.68763 6.50414 7.95079C6.48851 8.21395 6.52588 8.47757 6.61404 8.72602C6.71453 8.92515 6.8597 9.09835 7.0382 9.23209C7.2167 9.36584 7.4237 9.45651 7.64304 9.49702C7.72137 9.51707 7.80446 9.5052 7.87404 9.46402C7.94366 9.42225 7.99398 9.35469 8.01404 9.27602C8.02504 9.23741 8.02817 9.19698 8.02325 9.15713C8.01834 9.11729 8.00547 9.07884 7.98542 9.04405C7.96537 9.00927 7.93855 8.97886 7.90653 8.95464C7.87452 8.93041 7.83797 8.91286 7.79904 8.90302C7.66855 8.88387 7.54424 8.83483 7.43583 8.75972C7.32741 8.68461 7.23782 8.58547 7.17404 8.47002C7.07098 8.13567 7.10144 7.77439 7.25904 7.46202C7.28199 7.41534 7.29266 7.36358 7.29004 7.31162C7.28743 7.25967 7.27161 7.20924 7.24408 7.1651C7.21656 7.12097 7.17824 7.08457 7.13274 7.05936C7.08724 7.03415 7.03606 7.02095 6.98404 7.02102L6.98004 7.02202Z" fill="#497DF9"/>
<path d="M17.9181 7.99601C17.8897 7.96759 17.8561 7.94503 17.819 7.92965C17.7819 7.91426 17.7422 7.90634 17.7021 7.90634C17.6619 7.90634 17.6222 7.91426 17.5851 7.92965C17.5481 7.94503 17.5144 7.96759 17.4861 7.99601L17.1801 8.30201C17.1373 8.34466 17.1081 8.39907 17.0963 8.45832C17.0845 8.51757 17.0905 8.579 17.1136 8.63482C17.1368 8.69063 17.176 8.73831 17.2263 8.77182C17.2765 8.80532 17.3356 8.82314 17.3961 8.82301C17.5581 8.82301 17.6031 8.74401 17.9181 8.42801C17.9465 8.39967 17.969 8.36601 17.9844 8.32894C17.9998 8.29188 18.0077 8.25214 18.0077 8.21201C18.0077 8.17187 17.9998 8.13214 17.9844 8.09507C17.969 8.05801 17.9465 8.02434 17.9181 7.99601Z" fill="#497DF9"/>
<path d="M15.959 9.52401L15.654 9.82901C15.5968 9.8863 15.5646 9.96399 15.5646 10.045C15.5646 10.126 15.5968 10.2037 15.654 10.261C15.7113 10.3183 15.789 10.3505 15.87 10.3505C15.9511 10.3505 16.0288 10.3183 16.086 10.261L16.391 9.95601C16.4483 9.89872 16.4805 9.82103 16.4805 9.74001C16.4805 9.65899 16.4483 9.5813 16.391 9.52401C16.3338 9.46672 16.2561 9.43454 16.175 9.43454C16.094 9.43454 16.0163 9.46672 15.959 9.52401Z" fill="#497DF9"/>
<path d="M17.6131 9.52401C17.5558 9.46672 17.4781 9.43454 17.3971 9.43454C17.3161 9.43454 17.2384 9.46672 17.1811 9.52401C17.1238 9.5813 17.0916 9.65899 17.0916 9.74001C17.0916 9.82103 17.1238 9.89872 17.1811 9.95601C17.5051 10.28 17.5431 10.351 17.7021 10.351C17.7627 10.3513 17.8221 10.3336 17.8726 10.3C17.9231 10.2665 17.9624 10.2187 17.9856 10.1626C18.0088 10.1066 18.0147 10.045 18.0027 9.98553C17.9907 9.9261 17.9612 9.87161 17.9181 9.82901L17.6131 9.52401Z" fill="#497DF9"/>
<path d="M16.391 8.30203L16.086 7.99703C16.0288 7.93975 15.9511 7.90756 15.87 7.90756C15.789 7.90756 15.7113 7.93975 15.654 7.99703C15.5968 8.05432 15.5646 8.13202 15.5646 8.21303C15.5646 8.29405 15.5968 8.37175 15.654 8.42903L15.959 8.73403C16.0163 8.79132 16.094 8.8235 16.175 8.8235C16.2561 8.8235 16.3338 8.79132 16.391 8.73403C16.4483 8.67675 16.4805 8.59905 16.4805 8.51803C16.4805 8.43702 16.4483 8.35932 16.391 8.30203Z" fill="#497DF9"/>
<path d="M19.7511 4.63602C19.7227 4.6076 19.6891 4.58505 19.652 4.56966C19.6149 4.55428 19.5752 4.54636 19.5351 4.54636C19.4949 4.54636 19.4552 4.55428 19.4181 4.56966C19.3811 4.58505 19.3474 4.6076 19.3191 4.63602L19.0131 4.94202C18.9703 4.98468 18.9411 5.03908 18.9293 5.09834C18.9175 5.15759 18.9235 5.21902 18.9467 5.27483C18.9698 5.33064 19.009 5.37833 19.0593 5.41183C19.1095 5.44534 19.1686 5.46315 19.2291 5.46302C19.3911 5.46302 19.4361 5.38402 19.7511 5.06802C19.7795 5.03969 19.802 5.00602 19.8174 4.96896C19.8328 4.93189 19.8407 4.89215 19.8407 4.85202C19.8407 4.81189 19.8328 4.77215 19.8174 4.73509C19.802 4.69802 19.7795 4.66436 19.7511 4.63602Z" fill="#EF716B"/>
<path d="M18.224 6.16303C18.1957 6.13461 18.162 6.11206 18.125 6.09667C18.0879 6.08128 18.0482 6.07336 18.008 6.07336C17.9679 6.07336 17.9282 6.08128 17.8911 6.09667C17.854 6.11206 17.8204 6.13461 17.792 6.16303L17.486 6.46903C17.4432 6.51169 17.4141 6.56609 17.4023 6.62534C17.3904 6.6846 17.3965 6.74603 17.4196 6.80184C17.4428 6.85765 17.482 6.90534 17.5322 6.93884C17.5825 6.97235 17.6416 6.99016 17.702 6.99003C17.864 6.99003 17.909 6.91103 18.224 6.59503C18.2525 6.5667 18.275 6.53303 18.2904 6.49597C18.3058 6.4589 18.3137 6.41916 18.3137 6.37903C18.3137 6.3389 18.3058 6.29916 18.2904 6.26209C18.275 6.22503 18.2525 6.19136 18.224 6.16303Z" fill="#EF716B"/>
<path d="M19.446 6.16402C19.3887 6.10674 19.311 6.07455 19.23 6.07455C19.149 6.07455 19.0713 6.10674 19.014 6.16402C18.9567 6.22131 18.9246 6.29901 18.9246 6.38002C18.9246 6.46104 18.9567 6.53874 19.014 6.59602C19.338 6.92002 19.376 6.99102 19.535 6.99102C19.5957 6.99136 19.655 6.97362 19.7055 6.94006C19.756 6.90651 19.7954 6.85867 19.8185 6.80265C19.8417 6.74663 19.8477 6.68497 19.8357 6.62554C19.8236 6.56612 19.7942 6.51163 19.751 6.46902L19.446 6.16402Z" fill="#EF716B"/>
<path d="M18.2241 4.94101L17.9191 4.63601C17.8618 4.57872 17.7841 4.54654 17.7031 4.54654C17.622 4.54654 17.5443 4.57872 17.4871 4.63601C17.4298 4.6933 17.3976 4.77099 17.3976 4.85201C17.3976 4.93303 17.4298 5.01072 17.4871 5.06801L17.7921 5.37301C17.8493 5.4303 17.927 5.46248 18.0081 5.46248C18.0891 5.46248 18.1668 5.4303 18.2241 5.37301C18.2813 5.31572 18.3135 5.23803 18.3135 5.15701C18.3135 5.07599 18.2813 4.9983 18.2241 4.94101Z" fill="#EF716B"/>
</svg>
