<svg width="3" height="4" viewBox="0 0 3 4" fill="none" xmlns="http://www.w3.org/2000/svg">
<path d="M2.42501 1.88101L2.41701 1.87301C2.4006 1.85915 2.38491 1.84447 2.37001 1.82901C2.41687 1.61272 2.42332 1.38963 2.38901 1.17101C2.27701 0.834005 1.61101 0.608005 1.47801 0.582005L1.39501 0.561005C1.31648 0.550759 1.23666 0.563253 1.16501 0.597005C0.893184 0.699964 0.673159 0.906328 0.55301 1.17101C0.518376 1.38957 0.524479 1.61266 0.57101 1.82901C0.556106 1.84447 0.540419 1.85915 0.52401 1.87301L0.51701 1.88101C0.485079 1.97516 0.489357 2.07783 0.52901 2.16901C0.54783 2.23732 0.577545 2.30215 0.61701 2.36101C0.72501 2.86701 1.09901 3.29801 1.48101 3.29801C1.86301 3.29801 2.21701 2.86601 2.32501 2.36101C2.36474 2.30253 2.3948 2.23804 2.41401 2.17001C2.45101 2.04201 2.46101 1.91201 2.42501 1.88101Z" fill="#497DF9"/>
</svg>
