<svg width="7" height="6" viewBox="0 0 7 6" fill="none" xmlns="http://www.w3.org/2000/svg">
<path d="M6.14099 3.38699H5.38899L4.98199 2.75999L4.23899 4.52099L2.82199 2.25999L2.21299 3.38699H0.972992C1.02099 3.48966 1.07466 3.59166 1.13399 3.69299C1.40682 4.14352 1.74864 4.54844 2.14699 4.89299C2.5776 5.27213 3.05076 5.6 3.55699 5.86999C4.06557 5.59804 4.54076 5.26782 4.97299 4.88599C5.37004 4.54125 5.71052 4.13632 5.98199 3.68599C6.04266 3.58799 6.09566 3.48833 6.14099 3.38699Z" fill="#497DF9"/>
<path d="M0.837 3.047H2.012L2.8 1.589L4.181 3.792L4.92 2.037L5.572 3.047H6.272C6.37472 2.7456 6.42742 2.42942 6.428 2.111C6.42731 1.79236 6.32943 1.48151 6.14744 1.21996C5.96545 0.958403 5.708 0.758591 5.40946 0.647197C5.11093 0.535804 4.78551 0.51813 4.47667 0.596535C4.16783 0.67494 3.89025 0.845693 3.681 1.086L3.556 1.232L3.429 1.086C3.21972 0.84519 2.94188 0.674049 2.63267 0.595476C2.32346 0.516904 1.99763 0.534649 1.69878 0.646337C1.39993 0.758025 1.14232 0.958327 0.960432 1.22044C0.778543 1.48255 0.68105 1.79396 0.681 2.113C0.6818 2.43075 0.734493 2.74623 0.837 3.047V3.047Z" fill="#EF716B"/>
</svg>
