<svg width="7" height="4" viewBox="0 0 7 4" fill="none" xmlns="http://www.w3.org/2000/svg">
<path d="M0.837 3.047H2.012L2.8 1.589L4.181 3.792L4.92 2.037L5.572 3.047H6.272C6.37472 2.7456 6.42742 2.42942 6.428 2.111C6.42731 1.79236 6.32943 1.48151 6.14744 1.21996C5.96545 0.958403 5.708 0.758591 5.40946 0.647197C5.11093 0.535804 4.78551 0.51813 4.47667 0.596535C4.16783 0.67494 3.89025 0.845693 3.681 1.086L3.556 1.232L3.429 1.086C3.21972 0.84519 2.94188 0.674049 2.63267 0.595476C2.32346 0.516904 1.99763 0.534649 1.69878 0.646337C1.39993 0.758025 1.14232 0.958327 0.960432 1.22044C0.778543 1.48255 0.68105 1.79396 0.681 2.113C0.6818 2.43075 0.734493 2.74623 0.837 3.047V3.047Z" fill="#EF716B"/>
</svg>
