<svg width="57" height="57" viewBox="0 0 57 57" fill="none" xmlns="http://www.w3.org/2000/svg">
<path d="M43.241 9.316H38.327V15.795H43.241V9.316Z" fill="#5B5D6E"/>
<path d="M50.612 20.654L28.5 9.316L6.388 20.654V48.998H50.612V20.654Z" fill="#497DF9"/>
<path d="M50.612 20.653L48.974 19.813V48.997H50.612V20.653Z" fill="white"/>
<path d="M6.388 20.653V48.997H8.026V19.813L6.388 20.653Z" fill="white"/>
<path d="M24.404 26.322H14.577V39.279H24.404V26.322Z" fill="#B4E1FA"/>
<path d="M24.404 26.322H14.577V28.752H24.404V26.322Z" fill="#A0D2F0"/>
<path d="M15.396 26.322H14.577V32.081L18.672 39.281H22.767L15.396 26.322Z" fill="#A0D2F0"/>
<path d="M24.405 33.522L20.31 26.322H17.853L24.405 37.84V33.522Z" fill="#DAF0FD"/>
<path d="M21.692 28.751L20.31 26.322H17.853L19.235 28.751H21.692Z" fill="#B4E1FA"/>
<path d="M25.225 40.089H13.76C13.5452 40.089 13.3392 40.0037 13.1873 39.8518C13.0354 39.6999 12.95 39.4938 12.95 39.279C12.95 39.0642 13.0354 38.8581 13.1873 38.7062C13.3392 38.5543 13.5452 38.469 13.76 38.469V26.321C13.7616 26.1054 13.8486 25.8992 14.0019 25.7475C14.1552 25.5959 14.3624 25.5112 14.578 25.512H24.406C24.622 25.5107 24.8297 25.5951 24.9834 25.7468C25.1372 25.8985 25.2244 26.105 25.226 26.321V38.469C25.4408 38.469 25.6469 38.5543 25.7988 38.7062C25.9507 38.8581 26.036 39.0642 26.036 39.279C26.036 39.4938 25.9507 39.6999 25.7988 39.8518C25.6469 40.0037 25.4408 40.089 25.226 40.089H25.225ZM15.397 33.612V38.471H23.587V33.612H15.397ZM15.397 27.134V31.991H23.587V27.132H15.397V27.134Z" fill="white"/>
<path d="M6.388 20.654V23.56L8.026 22.716L28.5 12.243L48.974 22.722L50.612 23.56V20.654L28.5 9.316L6.388 20.654Z" fill="#C7CFE2"/>
<path d="M27.371 7.464L5.391 18.706C5.19863 18.8036 5.03698 18.9525 4.92387 19.1362C4.81076 19.3199 4.75059 19.5313 4.75 19.747V20.999C4.75127 21.1329 4.78681 21.2642 4.85324 21.3805C4.91967 21.4968 5.01477 21.5941 5.12948 21.6632C5.24418 21.7322 5.37467 21.7708 5.5085 21.7751C5.64234 21.7795 5.77505 21.7495 5.894 21.688L28.5 10.126L51.106 21.692C51.2249 21.7535 51.3577 21.7835 51.4915 21.7791C51.6253 21.7748 51.7558 21.7362 51.8705 21.6672C51.9852 21.5981 52.0803 21.5008 52.1468 21.3845C52.2132 21.2682 52.2487 21.1369 52.25 21.003V19.747C52.2496 19.5311 52.1895 19.3195 52.0764 19.1356C51.9633 18.9518 51.8015 18.8027 51.609 18.705L29.629 7.464C29.2794 7.28545 28.8925 7.19236 28.5 7.19236C28.1075 7.19236 27.7206 7.28545 27.371 7.464V7.464Z" fill="#707487"/>
<path d="M50.612 44.138H6.388V48.187H50.612V44.138Z" fill="#5A5987"/>
<path d="M44.06 26.322H30.957V48.997H44.06V26.322Z" fill="#E4EAF6"/>
<path d="M40.784 29.561H34.232V39.279H40.784V29.561Z" fill="#B4E1FA"/>
<path d="M40.784 29.561H34.232V31.991H40.784V29.561Z" fill="#A0D2F0"/>
<path d="M34.232 39.279H39.76L34.232 29.561V39.279Z" fill="#A0D2F0"/>
<path d="M40.785 29.561H36.69L40.785 36.761V29.561Z" fill="#DAF0FD"/>
<path d="M38.072 31.991H40.785V29.561H36.69L38.072 31.991Z" fill="#B4E1FA"/>
<path d="M44.061 49.806H30.958C30.742 49.8073 30.5343 49.7229 30.3806 49.5712C30.2268 49.4195 30.1396 49.213 30.138 48.997V26.321C30.1396 26.105 30.2268 25.8985 30.3806 25.7468C30.5343 25.5951 30.742 25.5107 30.958 25.512H44.058C44.2736 25.5112 44.4808 25.5959 44.6341 25.7475C44.7874 25.8992 44.8744 26.1054 44.876 26.321V48.997C44.8744 49.2121 44.7879 49.4179 44.6352 49.5694C44.4825 49.721 44.2761 49.806 44.061 49.806ZM31.776 27.132V48.187H43.238V27.132H31.776Z" fill="white"/>
<path d="M34.234 40.088C34.127 40.0888 34.0209 40.0685 33.9218 40.0282C33.8227 39.988 33.7325 39.9286 33.6563 39.8535C33.5801 39.7783 33.5195 39.6889 33.478 39.5904C33.4364 39.4918 33.4147 39.386 33.414 39.279V29.56C33.4156 29.344 33.5028 29.1375 33.6566 28.9858C33.8103 28.8341 34.018 28.7497 34.234 28.751H40.785C41.001 28.7497 41.2087 28.8341 41.3624 28.9858C41.5162 29.1375 41.6034 29.344 41.605 29.56V39.279C41.6043 39.386 41.5826 39.4918 41.541 39.5904C41.4995 39.6889 41.4389 39.7783 41.3627 39.8535C41.2865 39.9286 41.1963 39.988 41.0972 40.0282C40.9981 40.0685 40.892 40.0888 40.785 40.088H34.234Z" fill="white"/>
<path d="M51.257 49.807H5.74399C5.63791 49.807 5.53617 49.7649 5.46115 49.6898C5.38614 49.6148 5.34399 49.5131 5.34399 49.407V48.587C5.34399 48.4809 5.38614 48.3792 5.46115 48.3042C5.53617 48.2291 5.63791 48.187 5.74399 48.187H51.257C51.3631 48.187 51.4648 48.2291 51.5398 48.3042C51.6149 48.3792 51.657 48.4809 51.657 48.587V49.397C51.6583 49.4504 51.649 49.5035 51.6295 49.5531C51.61 49.6028 51.5807 49.6481 51.5434 49.6863C51.5062 49.7245 51.4616 49.7549 51.4124 49.7756C51.3632 49.7963 51.3104 49.807 51.257 49.807V49.807Z" fill="#8F96AC"/>
<path d="M43.651 10.126H37.919C37.8117 10.1268 37.7085 10.0852 37.6317 10.0103C37.5549 9.93543 37.5108 9.83325 37.509 9.726V8.906C37.5108 8.79875 37.5549 8.69657 37.6317 8.62167C37.7085 8.54676 37.8117 8.50519 37.919 8.506H43.651C43.7582 8.50519 43.8615 8.54676 43.9383 8.62167C44.015 8.69657 44.0591 8.79875 44.061 8.906V9.716C44.0614 9.76995 44.051 9.82345 44.0306 9.87337C44.0101 9.9233 43.9799 9.96865 43.9418 10.0068C43.9036 10.045 43.8583 10.0751 43.8083 10.0956C43.7584 10.1161 43.7049 10.1264 43.651 10.126V10.126Z" fill="#6F7589"/>
</svg>
