<svg width="26" height="25" viewBox="0 0 26 25" fill="none" xmlns="http://www.w3.org/2000/svg">
<path d="M10.529 10.705C10.9341 10.5259 11.2757 10.2286 11.509 9.85213C11.7424 9.47565 11.8567 9.03751 11.837 8.59501V8.17501C11.837 8.13403 11.8289 8.09346 11.8132 8.05561C11.7976 8.01776 11.7746 7.98336 11.7456 7.95439C11.7166 7.92542 11.6822 7.90244 11.6444 7.88676C11.6065 7.87108 11.566 7.86301 11.525 7.86301C11.484 7.86301 11.4435 7.87108 11.4056 7.88676C11.3677 7.90244 11.3334 7.92542 11.3044 7.95439C11.2754 7.98336 11.2524 8.01776 11.2367 8.05561C11.2211 8.09346 11.213 8.13403 11.213 8.17501V8.59501C11.251 8.96203 11.145 9.32946 10.9175 9.6199C10.6899 9.91034 10.3585 10.1011 9.993 10.152H9.354C9.31202 10.1527 9.2706 10.1616 9.23212 10.1784C9.19364 10.1952 9.15888 10.2195 9.12985 10.2498C9.10083 10.2801 9.07812 10.3159 9.06303 10.3551C9.04795 10.3943 9.0408 10.436 9.042 10.478C9.04176 10.5296 9.05378 10.5806 9.07707 10.6267C9.10037 10.6727 9.13428 10.7126 9.176 10.743C9.14437 10.7734 9.11921 10.8099 9.10203 10.8503C9.08485 10.8907 9.07599 10.9341 9.076 10.978C9.07466 11.0622 9.10675 11.1434 9.16524 11.204C9.22372 11.2645 9.30383 11.2994 9.388 11.301H10.032C10.5511 11.3102 11.0453 11.5249 11.4063 11.8979C11.7674 12.2709 11.9658 12.7719 11.958 13.291V20.399C11.958 20.4818 11.9909 20.5611 12.0494 20.6196C12.1079 20.6781 12.1873 20.711 12.27 20.711C12.3527 20.711 12.4321 20.6781 12.4906 20.6196C12.5491 20.5611 12.582 20.4818 12.582 20.399V13.291C12.5884 12.6898 12.3879 12.1048 12.0141 11.6339C11.6403 11.1631 11.116 10.8351 10.529 10.705Z" fill="#EF716B"/>
<path d="M5.48399 4.53699C5.94799 4.29974 6.46774 4.19303 6.98768 4.22826C7.50763 4.26349 8.00823 4.43933 8.43599 4.73699C9.09439 5.20258 9.54762 5.90439 9.70114 6.69604C9.85466 7.48768 9.69663 8.30803 9.25999 8.98599L9.20699 9.06899C9.11586 9.21985 9.06769 9.39274 9.06769 9.56899C9.06769 9.74523 9.11586 9.91813 9.20699 10.069C9.33669 10.2924 9.405 10.5462 9.405 10.8045C9.405 11.0628 9.33669 11.3166 9.20699 11.54C9.11434 11.6921 9.06534 11.8668 9.06534 12.045C9.06534 12.2231 9.11434 12.3978 9.20699 12.55L9.23299 12.591C9.6734 13.2765 9.83358 14.1051 9.6804 14.9054C9.52723 15.7057 9.07242 16.4165 8.40999 16.891C7.93326 17.2159 7.36991 17.3901 6.79299 17.391C6.30007 17.3891 5.81557 17.2631 5.38422 17.0245C4.95287 16.7859 4.58859 16.4425 4.32499 16.026C3.28523 14.4814 2.71938 12.6668 2.69699 10.805C2.72142 8.94417 3.28787 7.13084 4.32699 5.58699C4.37799 5.50799 4.42699 5.43299 4.48799 5.36099C4.75764 5.01864 5.09719 4.73772 5.48399 4.53699Z" fill="#EF716B"/>
<path d="M5.61399 16.027C4.57268 14.4826 4.00542 12.6675 3.98199 10.805C4.00642 8.94417 4.57287 7.13084 5.61199 5.58699C5.66299 5.50799 5.71699 5.43299 5.77299 5.35999L6.76899 4.53699C6.98186 4.42881 7.20722 4.3472 7.43999 4.29399C6.77968 4.14285 6.08724 4.22887 5.48399 4.53699C5.09907 4.73969 4.76029 5.01991 4.48899 5.35999C4.43299 5.43199 4.37799 5.50799 4.32799 5.58599C3.28833 7.13001 2.72152 8.94372 2.69699 10.805C2.72037 12.6675 3.28762 14.4826 4.32899 16.027C4.59259 16.4435 4.95687 16.7869 5.38822 17.0255C5.81957 17.2641 6.30407 17.3901 6.79699 17.392C7.01306 17.392 7.22844 17.3675 7.43899 17.319C6.68514 17.1441 6.03014 16.6801 5.61499 16.027H5.61399Z" fill="#EF716B"/>
<path d="M15.523 10.705C15.1179 10.5258 14.7763 10.2286 14.543 9.85211C14.3096 9.47564 14.1953 9.03749 14.215 8.59499V8.17499C14.2142 8.13336 14.2216 8.09198 14.2368 8.05321C14.252 8.01445 14.2747 7.97906 14.3036 7.94906C14.3325 7.91907 14.367 7.89506 14.4051 7.8784C14.4433 7.86174 14.4844 7.85277 14.526 7.85199C14.5677 7.85264 14.6089 7.86152 14.6472 7.87812C14.6854 7.89472 14.7201 7.91871 14.7491 7.94871C14.778 7.97872 14.8008 8.01416 14.8161 8.05299C14.8313 8.09182 14.8388 8.13328 14.838 8.17499V8.59499C14.8 8.96201 14.906 9.32945 15.1335 9.61989C15.3611 9.91033 15.6925 10.1011 16.058 10.152H16.697C16.7386 10.1526 16.7797 10.1615 16.8179 10.178C16.8561 10.1946 16.8907 10.2185 16.9197 10.2484C16.9487 10.2783 16.9715 10.3136 16.9868 10.3523C17.0021 10.391 17.0097 10.4324 17.009 10.474C17.0092 10.5256 16.9972 10.5766 16.9739 10.6226C16.9506 10.6687 16.9167 10.7086 16.875 10.739C16.9066 10.7694 16.9318 10.8059 16.949 10.8463C16.9662 10.8867 16.975 10.9301 16.975 10.974C16.9763 11.0582 16.9442 11.1394 16.8858 11.2C16.8273 11.2605 16.7472 11.2954 16.663 11.297H16.019C15.4994 11.3065 15.0048 11.5218 14.6439 11.8957C14.2829 12.2695 14.0852 12.7714 14.094 13.291V20.399C14.0948 20.4407 14.0873 20.4822 14.0721 20.521C14.0568 20.5598 14.034 20.5953 14.0051 20.6253C13.9761 20.6553 13.9414 20.6793 13.9032 20.6959C13.8649 20.7125 13.8237 20.7213 13.782 20.722C13.6978 20.7204 13.6177 20.6855 13.5592 20.625C13.5008 20.5644 13.4687 20.4832 13.47 20.399V13.291C13.4636 12.6898 13.6641 12.1047 14.0379 11.6339C14.4117 11.163 14.936 10.8351 15.523 10.705Z" fill="#497DF9"/>
<path d="M21.576 5.36099C21.628 5.43699 21.687 5.50899 21.737 5.58699C22.7764 7.13076 23.3432 8.94408 23.368 10.805C23.3445 12.6675 22.7773 14.4826 21.736 16.027C21.4724 16.4435 21.1081 16.7869 20.6767 17.0255C20.2454 17.2641 19.7609 17.3901 19.268 17.392C18.6911 17.3911 18.1277 17.2169 17.651 16.892C16.9885 16.4175 16.5337 15.7067 16.3806 14.9064C16.2274 14.1061 16.3876 13.2775 16.828 12.592L16.854 12.551C16.9466 12.3988 16.9956 12.2241 16.9956 12.046C16.9956 11.8679 16.9466 11.6931 16.854 11.541C16.7243 11.3176 16.656 11.0638 16.656 10.8055C16.656 10.5472 16.7243 10.2934 16.854 10.07C16.945 9.9191 16.9931 9.74622 16.9931 9.56999C16.9931 9.39377 16.945 9.22089 16.854 9.06999L16.808 8.98299C16.3716 8.30541 16.2134 7.48561 16.3663 6.6943C16.5193 5.903 16.9715 5.20118 17.629 4.73499C18.0568 4.43743 18.5574 4.26165 19.0773 4.22643C19.5972 4.1912 20.1169 4.29786 20.581 4.53499C20.9564 4.75162 21.2928 5.02983 21.576 5.35799V5.36099Z" fill="#497DF9"/>
<path d="M21.737 5.58698C21.686 5.50798 21.637 5.43298 21.576 5.36098C21.2958 5.02947 20.9589 4.75046 20.581 4.53698C19.9474 4.21455 19.2169 4.13762 18.53 4.32098C18.7292 4.37372 18.9223 4.44746 19.106 4.54098L20.101 5.36398C20.157 5.43598 20.212 5.51198 20.262 5.58998C21.3011 7.13383 21.8676 8.94716 21.892 10.808C21.8686 12.6705 21.3013 14.4856 20.26 16.03C19.8619 16.6532 19.2446 17.1046 18.53 17.295C18.7699 17.3601 19.0174 17.3938 19.266 17.395C19.7589 17.3931 20.2434 17.267 20.6748 17.0285C21.1061 16.7899 21.4704 16.4465 21.734 16.03C22.7762 14.4848 23.3439 12.6686 23.367 10.805C23.3426 8.94416 22.7761 7.13083 21.737 5.58698Z" fill="#497DF9"/>
</svg>
