<svg width="25" height="25" viewBox="0 0 25 25" fill="none" xmlns="http://www.w3.org/2000/svg">
<path d="M16.431 13.886C15.3739 13.593 14.3898 13.0821 13.542 12.386L13.474 12.451C12.9794 12.977 12.3067 13.3 11.587 13.357H11.53C10.8103 13.3 10.1375 12.977 9.64299 12.451L9.57499 12.386C8.72716 13.0821 7.74308 13.593 6.68599 13.886C3.67399 15.006 4.57899 19.586 4.57799 19.621C4.67299 20.131 4.72799 20.306 4.77799 20.321C7.80299 21.668 15.318 21.668 18.343 20.321C18.391 20.301 18.443 20.126 18.543 19.621C18.539 19.586 19.451 15.025 16.431 13.886Z" fill="#497DF9"/>
<path d="M12.423 15.146C12.423 14.6567 12.0263 14.26 11.537 14.26C11.0477 14.26 10.651 14.6567 10.651 15.146C10.651 15.6353 11.0477 16.032 11.537 16.032C12.0263 16.032 12.423 15.6353 12.423 15.146Z" fill="#EF716B"/>
<path d="M13.309 14.703C13.309 14.4583 13.1106 14.26 12.866 14.26C12.6213 14.26 12.423 14.4583 12.423 14.703C12.423 14.9477 12.6213 15.146 12.866 15.146C13.1106 15.146 13.309 14.9477 13.309 14.703Z" fill="#EF716B"/>
<path d="M10.651 14.703C10.651 14.4583 10.4526 14.26 10.208 14.26C9.96332 14.26 9.76498 14.4583 9.76498 14.703C9.76498 14.9477 9.96332 15.146 10.208 15.146C10.4526 15.146 10.651 14.9477 10.651 14.703Z" fill="#EF716B"/>
<path d="M13.309 15.589C13.309 15.3443 13.1106 15.146 12.866 15.146C12.6213 15.146 12.423 15.3443 12.423 15.589C12.423 15.8337 12.6213 16.032 12.866 16.032C13.1106 16.032 13.309 15.8337 13.309 15.589Z" fill="#EF716B"/>
<path d="M10.651 15.589C10.651 15.3443 10.4526 15.146 10.208 15.146C9.96332 15.146 9.76498 15.3443 9.76498 15.589C9.76498 15.8337 9.96332 16.032 10.208 16.032C10.4526 16.032 10.651 15.8337 10.651 15.589Z" fill="#EF716B"/>
<path d="M14.722 8.03901L14.697 8.01201C14.6426 7.96602 14.5905 7.91729 14.541 7.86601C14.6963 7.14261 14.7163 6.3967 14.6 5.66601C14.227 4.54201 12.004 3.78701 11.558 3.69901C11.558 3.69901 11.287 3.64401 11.27 3.64401C11.0127 3.60742 10.7503 3.64416 10.513 3.75001C9.60749 4.09547 8.87528 4.78491 8.476 5.66801C8.35964 6.3987 8.37965 7.14461 8.535 7.86801C8.48449 7.91869 8.43142 7.96675 8.376 8.01201L8.351 8.03901C8.24327 8.35294 8.25719 8.69585 8.39 9.00001C8.45505 9.22742 8.55635 9.44285 8.69 9.63801C9.044 11.33 10.294 12.768 11.568 12.768C12.842 12.768 14.026 11.33 14.386 9.63901C14.5196 9.44385 14.6209 9.22842 14.686 9.00101C14.808 8.57701 14.84 8.14101 14.722 8.03901Z" fill="#497DF9"/>
</svg>
