<svg width="16" height="18" viewBox="0 0 16 18" fill="none" xmlns="http://www.w3.org/2000/svg">
<path d="M6.071 15.883C6.675 15.929 7.318 15.9523 8 15.953C8.682 15.9537 9.325 15.9303 9.929 15.883C9.80811 16.3011 9.55461 16.6687 9.20669 16.9303C8.85878 17.1919 8.43528 17.3333 8 17.3333C7.56472 17.3333 7.14122 17.1919 6.79331 16.9303C6.44539 16.6687 6.19189 16.3011 6.071 15.883ZM7.512 15.326C7.191 15.321 6.875 15.31 6.572 15.295L6.121 15.267L5.684 15.232L5.568 15.221L5.468 15.211L5.054 15.167L4.654 15.111C1.974 14.705 0.5 13.777 0.5 12.495C0.513456 11.9225 0.733283 11.3742 1.119 10.951L1.154 10.907L1.182 10.872L1.327 10.703L1.611 10.381L1.811 10.145C2.2736 9.66025 2.53025 9.01504 2.527 8.34499V6.26699C2.51232 4.79926 3.08018 3.38558 4.10611 2.33585C5.13203 1.28611 6.53231 0.685978 8 0.666992C9.46769 0.685978 10.868 1.28611 11.8939 2.33585C12.9198 3.38558 13.4877 4.79926 13.473 6.26699V8.34399C13.4743 8.70546 13.5482 9.06299 13.6902 9.39538C13.8323 9.72776 14.0396 10.0282 14.3 10.279L14.749 10.791L14.881 10.951C15.2667 11.3742 15.4865 11.9225 15.5 12.495C15.5 13.777 14.026 14.705 11.347 15.108L10.947 15.164L10.531 15.211L10.431 15.221L10.313 15.232L9.876 15.267L9.425 15.295C9.125 15.311 8.806 15.321 8.485 15.326H7.997H7.512ZM4.014 6.26699V8.34399C4.01733 8.88906 3.91305 9.42942 3.70712 9.93409C3.5012 10.4388 3.19769 10.8978 2.814 11.285L2.366 11.8L2.272 11.912C2.11483 12.0692 2.01455 12.2744 1.987 12.495C1.987 12.686 2.28 12.902 2.813 13.104L3.024 13.179L3.257 13.252L3.511 13.323L3.786 13.39L3.877 13.411L3.932 13.423L4.232 13.485L4.392 13.515L4.725 13.571L5.077 13.623L5.449 13.667L5.64 13.688L6.035 13.726L6.445 13.757L6.871 13.781L7.312 13.797L7.767 13.805H8.232L8.687 13.797L9.128 13.781L9.554 13.757L9.964 13.726L10.164 13.708L10.55 13.668L10.919 13.622L11.271 13.57L11.604 13.514C11.714 13.494 11.819 13.473 11.918 13.453L12.218 13.388L12.493 13.321L12.747 13.25L12.98 13.177L13.191 13.102C13.724 12.902 14.017 12.684 14.017 12.493C13.9894 12.2724 13.8892 12.0672 13.732 11.91L13.707 11.88L13.052 11.121C12.3586 10.3627 11.979 9.36944 11.99 8.34199V6.26699C12.0004 5.19748 11.5862 4.16751 10.8382 3.40301C10.0902 2.63851 9.06948 2.20192 8 2.18899C6.93121 2.20297 5.91155 2.64003 5.16441 3.40441C4.41727 4.16879 4.00359 5.19817 4.014 6.26699Z" fill="#FB3C3C"/>
</svg>
