<svg width="3" height="3" viewBox="0 0 3 3" fill="none" xmlns="http://www.w3.org/2000/svg">
<path d="M2.79899 0.554008C2.78856 0.544792 2.77632 0.537855 2.76306 0.533641C2.74979 0.529426 2.73579 0.528027 2.72196 0.529533C2.70812 0.531039 2.69475 0.535417 2.6827 0.542387C2.67066 0.549356 2.66019 0.558764 2.65199 0.570008L1.26399 2.30001C1.25462 2.31032 1.24319 2.31856 1.23045 2.3242C1.21771 2.32984 1.20393 2.33275 1.18999 2.33275C1.17606 2.33275 1.16228 2.32984 1.14953 2.3242C1.13679 2.31856 1.12536 2.31032 1.11599 2.30001L0.340992 1.56301C0.331077 1.55349 0.319384 1.54601 0.30658 1.54101C0.293777 1.53601 0.280113 1.53358 0.26637 1.53386C0.252627 1.53413 0.239074 1.53712 0.226483 1.54263C0.213893 1.54815 0.202513 1.55609 0.192992 1.56601C0.173763 1.58603 0.163277 1.61287 0.16384 1.64063C0.164118 1.65437 0.167101 1.66793 0.172618 1.68052C0.178134 1.69311 0.186077 1.70449 0.195992 1.71401L0.969992 2.45601C1.02792 2.51128 1.10493 2.54209 1.18499 2.54201H1.19799C1.23965 2.541 1.28068 2.53162 1.31864 2.51444C1.35661 2.49726 1.39073 2.47263 1.41899 2.44201L2.81499 0.701008C2.82421 0.690578 2.83114 0.678339 2.83536 0.665074C2.83957 0.651809 2.84097 0.63781 2.83947 0.623973C2.83796 0.610137 2.83358 0.596767 2.82661 0.584719C2.81964 0.572671 2.81024 0.562211 2.79899 0.554008Z" fill="white"/>
</svg>
