<svg width="46" height="46" viewBox="0 0 46 46" fill="none" xmlns="http://www.w3.org/2000/svg">
<path d="M30.6898 5.80088C28.2737 4.72861 25.531 4.65841 23.0633 5.60568C20.5955 6.55296 18.6043 8.44036 17.5263 10.8539L13.9214 18.9505L32.1379 27.061L35.7428 18.9644C36.815 16.5483 36.8852 13.8056 35.938 11.3379C34.9907 8.87013 33.1033 6.87887 30.6898 5.80088Z" fill="url(#paint0_linear_20_523)"/>
<path d="M31.1398 4.78835C28.4553 3.59626 25.4076 3.51793 22.6654 4.57055C19.9232 5.62317 17.7107 7.72074 16.5134 10.4029L9.30369 26.5962C8.1116 29.2807 8.03327 32.3284 9.08589 35.0706C10.1385 37.8128 12.2361 40.0253 14.9182 41.2226C17.6027 42.4147 20.6505 42.493 23.3927 41.4404C26.1348 40.3878 28.3473 38.2902 29.5446 35.608L36.7544 19.4148C37.9464 16.7303 38.0248 13.6825 36.9722 10.9403C35.9195 8.19817 33.822 5.98565 31.1398 4.78835ZM34.7308 18.513L27.5214 34.7073C26.5631 36.8526 24.7929 38.5303 22.5993 39.3723C20.4057 40.2144 17.9677 40.152 15.82 39.199L15.3696 40.2106L15.82 39.199C13.6746 38.2406 11.9969 36.4705 11.1549 34.2769C10.3128 32.0833 10.3752 29.6453 11.3282 27.4975L18.5379 11.3043C19.502 9.16934 21.272 7.5029 23.4611 6.6692C25.6503 5.8355 28.0804 5.90234 30.2204 6.85513C32.3604 7.80791 34.0361 9.56913 34.8814 11.7538C35.7266 13.9385 35.6726 16.369 34.7312 18.514L34.7308 18.513Z" fill="#4D4D4D"/>
<path d="M17.6223 35.1491C16.5498 34.6697 15.7111 33.7847 15.2902 32.6879C14.8692 31.5912 14.9002 30.3723 15.3764 29.2984C15.484 29.0321 15.484 28.7345 15.3765 28.4682C15.2689 28.2019 15.0621 27.9878 14.7998 27.871C14.5374 27.7542 14.24 27.7438 13.9701 27.8421C13.7003 27.9403 13.4791 28.1394 13.3532 28.3976C12.6382 30.0083 12.5913 31.8368 13.2228 33.482C13.8544 35.1272 15.1127 36.4547 16.7219 37.1733C16.9903 37.293 17.2952 37.3011 17.5696 37.196C17.844 37.0908 18.0654 36.881 18.1851 36.6126C18.3048 36.3442 18.313 36.0393 18.2079 35.7649C18.1027 35.4904 17.8929 35.269 17.6245 35.1493L17.6223 35.1491Z" fill="#FB3C3C"/>
<defs>
<linearGradient id="paint0_linear_20_523" x1="21.4987" y1="6.20625" x2="29.8424" y2="27.9422" gradientUnits="userSpaceOnUse">
<stop stop-color="#FB3C3C"/>
<stop offset="1" stop-color="#FB3CD5"/>
</linearGradient>
</defs>
</svg>
