<svg width="18" height="18" viewBox="0 0 18 18" fill="none" xmlns="http://www.w3.org/2000/svg">
<path fill-rule="evenodd" clip-rule="evenodd" d="M12.167 10.709L17.067 15.703C17.239 15.886 17.3337 16.1283 17.3315 16.3794C17.3293 16.6305 17.2302 16.8711 17.055 17.051C16.9693 17.1392 16.867 17.2095 16.754 17.2578C16.6409 17.3062 16.5194 17.3317 16.3965 17.3328C16.2736 17.3339 16.1516 17.3107 16.0377 17.2643C15.9238 17.218 15.8202 17.1496 15.733 17.063L10.872 12.107L10.89 12.088C9.65394 13.1043 8.07275 13.6034 6.47718 13.4807C4.88161 13.3581 3.39523 12.6233 2.32899 11.43C1.24759 10.2253 0.654021 8.6607 0.664191 7.04184C0.674361 5.42298 1.28753 3.86605 2.38398 2.67499C3.46557 1.49583 4.96116 0.780475 6.55799 0.67853C8.15482 0.576585 9.72922 1.09595 10.952 2.12799C12.1864 3.17487 12.9859 4.64464 13.194 6.24979C13.402 7.85494 13.0037 9.47996 12.077 10.807L12.167 10.709ZM2.24897 7.08499C2.26709 8.0138 2.55906 8.91658 3.08826 9.68009C3.61747 10.4436 4.36034 11.0338 5.2237 11.3768C6.08706 11.7197 7.03249 11.8001 7.94135 11.6079C8.85022 11.4156 9.68207 10.9593 10.3326 10.2961C10.9831 9.63285 11.4233 8.79233 11.598 7.87992C11.7726 6.96751 11.674 6.02384 11.3145 5.16727C10.9549 4.3107 10.3504 3.57936 9.57679 3.065C8.8032 2.55065 7.89499 2.27615 6.96601 2.27597C5.70372 2.28943 4.49836 2.80335 3.61469 3.70484C2.73102 4.60632 2.24127 5.82168 2.253 7.08399L2.24897 7.08499Z" fill="#FB3C3C"/>
</svg>
